name Walk9.mot
datacolumns 19
datarows 30
range 1.38000000 1.52500000
endheader

                time	   L_ground_force_vx	   L_ground_force_vy	   L_ground_force_vz	   L_ground_force_px	   L_ground_force_py	   L_ground_force_pz	   R_ground_force_vx	   R_ground_force_vy	   R_ground_force_vz	   R_ground_force_px	   R_ground_force_py	   R_ground_force_pz	   L_ground_torque_x	   L_ground_torque_y	   L_ground_torque_z	   R_ground_torque_x	   R_ground_torque_y	   R_ground_torque_z	
          1.38000000	         -0.03710509	          0.52955696	         -0.05506972	          0.00048572	          0.00000000	          0.00030532	         15.57618548	        687.94515014	        -13.63797882	         -0.14773649	          0.00000000	          0.32237743	          0.00000000	         -0.00027560	          0.00000000	          0.00000000	          2.86858460	          0.00000000	
          1.38500000	         -0.05350274	          0.59251784	         -0.05824492	          0.00050190	          0.00000000	          0.00031218	         17.73602501	        696.29266230	        -14.10494210	         -0.14593749	          0.00000000	          0.32208643	          0.00000000	         -0.00036767	          0.00000000	          0.00000000	          2.74395726	          0.00000000	
          1.39000000	         -0.07247453	          0.61762367	         -0.05601301	          0.00046523	          0.00000000	          0.00028437	         20.09162261	        704.48318856	        -14.61459462	         -0.14420265	          0.00000000	          0.32180973	          0.00000000	         -0.00046590	          0.00000000	          0.00000000	          2.60588313	          0.00000000	
          1.39500000	         -0.09312059	          0.58060284	         -0.04562464	          0.00035068	          0.00000000	          0.00020593	         22.65330760	        712.50608585	        -15.11289818	         -0.14254357	          0.00000000	          0.32154338	          0.00000000	         -0.00056161	          0.00000000	          0.00000000	          2.46161229	          0.00000000	
          1.40000000	         -0.11383127	          0.45126868	         -0.02379844	          0.00012880	          0.00000000	          0.00005822	         25.43144678	        720.34686412	        -15.54121587	         -0.14096964	          0.00000000	          0.32128390	          0.00000000	         -0.00064161	          0.00000000	          0.00000000	          2.31989239	          0.00000000	
          1.40500000	         -0.13208848	          0.19393352	          0.01317192	         -0.00023308	          0.00000000	         -0.00017930	         28.43444570	        727.98865429	        -15.85107953	         -0.13948696	          0.00000000	          0.32102887	          0.00000000	         -0.00068722	          0.00000000	          0.00000000	          2.18920953	          0.00000000	
          1.41000000	         -0.14426819	         -0.23126716	          0.06919828	         -0.00076864	          0.00000000	         -0.00052757	         31.67051108	        735.41039419	        -16.01265342	         -0.13809884	          0.00000000	          0.32077581	          0.00000000	         -0.00067360	          0.00000000	          0.00000000	          2.07589861	          0.00000000	
          1.41500000	         -0.14546867	         -0.86579474	          0.14803055	         -0.00150899	          0.00000000	         -0.00100559	         35.15020058	        742.58348197	        -16.01435934	         -0.13680674	          0.00000000	          0.32052271	          0.00000000	         -0.00056928	          0.00000000	          0.00000000	          1.98321974	          0.00000000	
          1.42000000	         -0.12940029	         -1.74848737	          0.25270368	         -0.00247737	          0.00000000	         -0.00162699	         38.88331422	        749.47075962	        -15.85953430	         -0.13561110	          0.00000000	          0.32026846	          0.00000000	         -0.00033640	          0.00000000	          0.00000000	          1.91138687	          0.00000000	
          1.42500000	         -0.08838491	         -2.90930276	          0.38476337	         -0.00368192	          0.00000000	         -0.00239532	         42.87226923	        756.02981468	        -15.56164975	         -0.13451178	          0.00000000	          0.32001076	          0.00000000	          0.00006824	          0.00000000	          0.00000000	          1.85917663	          0.00000000	
          1.43000000	         -0.01352600	         -4.36065599	          0.54324245	         -0.00510619	          0.00000000	         -0.00329804	         47.10895224	        762.21037464	        -15.13963523	         -0.13350728	          0.00000000	          0.31974540	          0.00000000	          0.00069081	          0.00000000	          0.00000000	          1.82481160	          0.00000000	
          1.43500000	          0.10487559	         -6.08607545	          0.72337445	         -0.00669742	          0.00000000	         -0.00429898	         51.57462181	        767.94717310	        -14.61538302	         -0.13259351	          0.00000000	          0.31946946	          0.00000000	          0.00157644	          0.00000000	          0.00000000	          1.80564342	          0.00000000	
          1.44000000	          0.27657453	         -8.02607554	          0.91505627	         -0.00835278	          0.00000000	         -0.00532965	         56.24020836	        773.15793970	        -14.01317147	         -0.13176321	          0.00000000	          0.31918337	          0.00000000	          0.00276304	          0.00000000	          0.00000000	          1.79817446	          0.00000000	
          1.44500000	          0.51020896	        -10.06143183	          1.10110887	         -0.00990398	          0.00000000	         -0.00627954	         61.06843833	        777.74761606	        -13.36129688	         -0.13100769	          0.00000000	          0.31889069	          0.00000000	          0.00427265	          0.00000000	          0.00000000	          1.79755357	          0.00000000	
          1.45000000	          0.81161066	        -11.99446806	          1.25543787	         -0.01110145	          0.00000000	         -0.00698635	         66.01773698	        781.61666631	        -12.69323724	         -0.13031884	          0.00000000	          0.31859600	          0.00000000	          0.00609976	          0.00000000	          0.00000000	          1.79813069	          0.00000000	
          1.45500000	          1.18151598	        -13.52955082	          1.34126465	         -0.01159965	          0.00000000	         -0.00722692	         71.04472066	        784.66698838	        -12.04712780	         -0.12968809	          0.00000000	          0.31830389	          0.00000000	          0.00819666	          0.00000000	          0.00000000	          1.79436478	          0.00000000	
          1.46000000	          1.61262472	        -14.25475420	          1.30968559	         -0.01094595	          0.00000000	         -0.00671078	         76.10549345	        786.80433892	        -11.46408092	         -0.12910634	          0.00000000	          0.31801939	          0.00000000	          0.01045563	          0.00000000	          0.00000000	          1.78077087	          0.00000000	
          1.46500000	          2.08600504	        -13.62761017	          1.09892083	         -0.00857666	          0.00000000	         -0.00507829	         81.15891041	        787.94179865	        -10.98483018	         -0.12856493	          0.00000000	          0.31774964	          0.00000000	          0.01268876	          0.00000000	          0.00000000	          1.75181056	          0.00000000	
          1.47000000	          2.56692170	        -10.96898748	          0.63473075	         -0.00382429	          0.00000000	         -0.00190631	         86.17043394	        787.99990274	        -10.64465733	         -0.12805676	          0.00000000	          0.31750558	          0.00000000	          0.01460617	          0.00000000	          0.00000000	          1.70183635	          0.00000000	
          1.47500000	          3.00027986	         -5.47040105	         -0.16739796	          0.00405811	          0.00000000	          0.00327509	         91.11300911	        786.90203067	        -10.46750731	         -0.12757764	          0.00000000	          0.31729978	          0.00000000	          0.01579480	          0.00000000	          0.00000000	          1.62630506	          0.00000000	
          1.48000000	          3.30603103	          3.77863713	         -1.39757634	          0.01584928	          0.00000000	          0.01095097	         95.96609368	        784.56586880	        -10.46142664	         -0.12712562	          0.00000000	          0.31714487	          0.00000000	          0.01570037	          0.00000000	          0.00000000	          1.52268601	          0.00000000	
          1.48500000	          3.37508674	         17.73538754	         -3.14353113	          0.03228154	          0.00000000	          0.02157000	        100.71274002	        780.89145280	        -10.61467251	         -0.12669967	          0.00000000	          0.31705523	          0.00000000	          0.01361682	          0.00000000	          0.00000000	          1.39037982	          0.00000000	
          1.49000000	          3.06652784	         37.31198966	         -5.47845194	          0.05392444	          0.00000000	          0.03546893	        105.33659913	        775.75400929	        -10.89267767	         -0.12629949	          0.00000000	          0.31704633	          0.00000000	          0.00868845	          0.00000000	          0.00000000	          1.23132164	          0.00000000	
          1.49500000	          2.20717837	         63.23772975	         -8.44383313	          0.08102354	          0.00000000	          0.05276832	        109.81970584	        769.00205361	        -11.23767557	         -0.12592629	          0.00000000	          0.31713545	          0.00000000	         -0.00006828	          0.00000000	          0.00000000	          1.04960405	          0.00000000	
          1.50000000	          0.59491916	         95.86681501	        -12.02662665	          0.11328886	          0.00000000	          0.07323682	        114.13856374	        760.45700538	        -11.57160478	         -0.12558392	          0.00000000	          0.31734232	          0.00000000	         -0.01371493	          0.00000000	          0.00000000	          0.85088508	          0.00000000	
          1.50500000	         -1.99257537	        134.92487827	        -16.13034140	          0.14963104	          0.00000000	          0.09612282	        118.25896923	        749.91627255	        -11.80396014	         -0.12527933	          0.00000000	          0.31768699	          0.00000000	         -0.03330381	          0.00000000	          0.00000000	          0.64232622	          0.00000000	
          1.51000000	         -5.78175489	        179.19183533	        -20.54030838	          0.18786138	          0.00000000	          0.11996498	        122.13242924	        737.15478961	        -11.84273971	         -0.12502064	          0.00000000	          0.31818884	          0.00000000	         -0.05974496	          0.00000000	          0.00000000	          0.43177155	          0.00000000	
          1.51500000	        -10.97923650	        226.20061751	        -24.88783660	          0.22498650	          0.00000000	          0.14280362	        125.69420382	        721.93127704	        -11.60508252	         -0.12481383	          0.00000000	          0.31886336	          0.00000000	         -0.09375962	          0.00000000	          0.00000000	          0.22769835	          0.00000000	
          1.52000000	        -17.72763150	        272.62181295	        -28.64160918	          0.25873993	          0.00000000	          0.16317086	        128.86384212	        703.99974388	        -11.02820435	         -0.12465976	          0.00000000	          0.31971962	          0.00000000	         -0.13649946	          0.00000000	          0.00000000	          0.03885570	          0.00000000	
          1.52500000	        -25.98781055	        315.85431052	        -31.18265872	          0.28793976	          0.00000000	          0.18028886	        131.54705902	        683.12851399	        -10.08029360	         -0.12455233	          0.00000000	          0.32075624	          0.00000000	         -0.19079128	          0.00000000	          0.00000000	         -0.12734390	          0.00000000	
